<svg width="141" height="23" viewBox="0 0 141 23" fill="none" xmlns="http://www.w3.org/2000/svg">
<path d="M6.80753 22L0.564631 0.181818H5.60369L9.2152 15.3416H9.39631L13.3807 0.181818H17.6953L21.669 15.3736H21.8608L25.4723 0.181818H30.5114L24.2685 22H19.7727L15.6179 7.73508H15.4474L11.3033 22H6.80753ZM38.5946 22.3196C36.9114 22.3196 35.4625 21.9787 34.248 21.2969C33.0407 20.608 32.1103 19.6349 31.4569 18.3778C30.8034 17.1136 30.4767 15.6186 30.4767 13.8928C30.4767 12.2095 30.8034 10.7322 31.4569 9.46094C32.1103 8.18963 33.03 7.19886 34.2161 6.48864C35.4093 5.77841 36.8084 5.4233 38.4135 5.4233C39.4931 5.4233 40.498 5.5973 41.4284 5.94531C42.3659 6.28622 43.1827 6.80114 43.8787 7.49006C44.5819 8.17898 45.1287 9.04545 45.5194 10.0895C45.91 11.1264 46.1053 12.3409 46.1053 13.733V14.9794H32.2878V12.1669H41.8333C41.8333 11.5135 41.6912 10.9347 41.4071 10.4304C41.123 9.92614 40.7289 9.53196 40.2246 9.24787C39.7275 8.95668 39.1486 8.81108 38.4881 8.81108C37.7992 8.81108 37.1884 8.97088 36.6557 9.29048C36.1301 9.60298 35.7182 10.0256 35.4199 10.5582C35.1216 11.0838 34.9689 11.6697 34.9618 12.3161V14.9901C34.9618 15.7997 35.111 16.4993 35.4093 17.0888C35.7147 17.6783 36.1444 18.1328 36.6983 18.4524C37.2523 18.772 37.9093 18.9318 38.6692 18.9318C39.1735 18.9318 39.6351 18.8608 40.0542 18.7188C40.4732 18.5767 40.8319 18.3636 41.1301 18.0795C41.4284 17.7955 41.6557 17.4474 41.812 17.0355L46.0094 17.3125C45.7963 18.321 45.3596 19.2017 44.699 19.9545C44.0456 20.7003 43.2005 21.2827 42.1635 21.7017C41.1337 22.1136 39.9441 22.3196 38.5946 22.3196ZM53.7331 22.3089C52.6891 22.3089 51.7587 22.1278 50.9419 21.7656C50.1252 21.3963 49.4789 20.853 49.003 20.1357C48.5343 19.4112 48.2999 18.5092 48.2999 17.4297C48.2999 16.5206 48.4668 15.7571 48.8006 15.1392C49.1344 14.5213 49.589 14.0241 50.1642 13.6477C50.7395 13.2713 51.3929 12.9872 52.1245 12.7955C52.8631 12.6037 53.6373 12.4688 54.4469 12.3906C55.3986 12.2912 56.1657 12.1989 56.748 12.1136C57.3304 12.0213 57.753 11.8864 58.0158 11.7088C58.2786 11.5312 58.41 11.2685 58.41 10.9205V10.8565C58.41 10.1818 58.1969 9.6598 57.7708 9.29048C57.3517 8.92116 56.7551 8.73651 55.981 8.73651C55.1642 8.73651 54.5144 8.91761 54.0314 9.27983C53.5485 9.63494 53.2289 10.0824 53.0726 10.6222L48.8752 10.2812C49.0882 9.28693 49.5073 8.42756 50.1323 7.70312C50.7573 6.97159 51.5634 6.41051 52.5506 6.01989C53.5449 5.62216 54.6955 5.4233 56.0023 5.4233C56.9114 5.4233 57.7814 5.52983 58.6124 5.7429C59.4505 5.95597 60.1926 6.28622 60.839 6.73366C61.4924 7.18111 62.0073 7.75639 62.3837 8.45952C62.7601 9.15554 62.9483 9.99006 62.9483 10.9631V22H58.6444V19.7308H58.5165C58.2537 20.2422 57.9022 20.6932 57.4618 21.0838C57.0215 21.4673 56.4924 21.7692 55.8745 21.9893C55.2566 22.2024 54.5428 22.3089 53.7331 22.3089ZM55.0328 19.1768C55.7005 19.1768 56.29 19.0455 56.8013 18.7827C57.3127 18.5128 57.714 18.1506 58.0051 17.696C58.2963 17.2415 58.4419 16.7266 58.4419 16.1513V14.4148C58.2999 14.5071 58.1046 14.5923 57.856 14.6705C57.6145 14.7415 57.3411 14.8089 57.0357 14.8729C56.7303 14.9297 56.4249 14.983 56.1195 15.0327C55.8141 15.0753 55.5371 15.1143 55.2885 15.1499C54.7559 15.228 54.2907 15.3523 53.8929 15.5227C53.4952 15.6932 53.1863 15.924 52.9661 16.2152C52.7459 16.4993 52.6358 16.8544 52.6358 17.2805C52.6358 17.8984 52.8596 18.3707 53.307 18.6974C53.7615 19.017 54.3368 19.1768 55.0328 19.1768ZM66.4693 22V5.63636H70.8691V8.49148H71.0396C71.3379 7.47585 71.8386 6.70881 72.5417 6.19034C73.2449 5.66477 74.0545 5.40199 74.9707 5.40199C75.198 5.40199 75.443 5.41619 75.7058 5.4446C75.9686 5.47301 76.1994 5.51207 76.3983 5.56179V9.58878C76.1852 9.52486 75.8904 9.46804 75.514 9.41832C75.1376 9.36861 74.7931 9.34375 74.4806 9.34375C73.813 9.34375 73.2164 9.48935 72.6909 9.78054C72.1724 10.0646 71.7605 10.4624 71.4551 10.9737C71.1568 11.4851 71.0076 12.0746 71.0076 12.7422V22H66.4693ZM88.2688 5.63636V9.04545H78.4144V5.63636H88.2688ZM80.6516 1.71591H85.19V16.9716C85.19 17.3906 85.2539 17.7173 85.3817 17.9517C85.5096 18.179 85.6871 18.3388 85.9144 18.4311C86.1488 18.5234 86.4187 18.5696 86.7241 18.5696C86.9371 18.5696 87.1502 18.5518 87.3633 18.5163C87.5763 18.4737 87.7397 18.4418 87.8533 18.4205L88.5671 21.7976C88.3398 21.8686 88.0202 21.9503 87.6083 22.0426C87.1964 22.142 86.6957 22.2024 86.1062 22.2237C85.0124 22.2663 84.0536 22.1207 83.2298 21.7869C82.413 21.4531 81.7773 20.9347 81.3228 20.2315C80.8683 19.5284 80.6445 18.6406 80.6516 17.5682V1.71591ZM95.8913 22.3089C94.8473 22.3089 93.9169 22.1278 93.1001 21.7656C92.2834 21.3963 91.6371 20.853 91.1612 20.1357C90.6925 19.4112 90.4581 18.5092 90.4581 17.4297C90.4581 16.5206 90.625 15.7571 90.9588 15.1392C91.2926 14.5213 91.7472 14.0241 92.3224 13.6477C92.8977 13.2713 93.5511 12.9872 94.2827 12.7955C95.0213 12.6037 95.7955 12.4688 96.6051 12.3906C97.5568 12.2912 98.3239 12.1989 98.9062 12.1136C99.4886 12.0213 99.9112 11.8864 100.174 11.7088C100.437 11.5312 100.568 11.2685 100.568 10.9205V10.8565C100.568 10.1818 100.355 9.6598 99.929 9.29048C99.5099 8.92116 98.9134 8.73651 98.1392 8.73651C97.3224 8.73651 96.6726 8.91761 96.1896 9.27983C95.7067 9.63494 95.3871 10.0824 95.2308 10.6222L91.0334 10.2812C91.2464 9.28693 91.6655 8.42756 92.2905 7.70312C92.9155 6.97159 93.7216 6.41051 94.7088 6.01989C95.7031 5.62216 96.8537 5.4233 98.1605 5.4233C99.0696 5.4233 99.9396 5.52983 100.771 5.7429C101.609 5.95597 102.351 6.28622 102.997 6.73366C103.651 7.18111 104.165 7.75639 104.542 8.45952C104.918 9.15554 105.107 9.99006 105.107 10.9631V22H100.803V19.7308H100.675C100.412 20.2422 100.06 20.6932 99.62 21.0838C99.1797 21.4673 98.6506 21.7692 98.0327 21.9893C97.4148 22.2024 96.701 22.3089 95.8913 22.3089ZM97.1911 19.1768C97.8587 19.1768 98.4482 19.0455 98.9595 18.7827C99.4709 18.5128 99.8722 18.1506 100.163 17.696C100.455 17.2415 100.6 16.7266 100.6 16.1513V14.4148C100.458 14.5071 100.263 14.5923 100.014 14.6705C99.7727 14.7415 99.4993 14.8089 99.1939 14.8729C98.8885 14.9297 98.5831 14.983 98.2777 15.0327C97.9723 15.0753 97.6953 15.1143 97.4467 15.1499C96.9141 15.228 96.4489 15.3523 96.0511 15.5227C95.6534 15.6932 95.3445 15.924 95.1243 16.2152C94.9041 16.4993 94.794 16.8544 94.794 17.2805C94.794 17.8984 95.0178 18.3707 95.4652 18.6974C95.9197 19.017 96.495 19.1768 97.1911 19.1768ZM112.74 17.2912L112.75 11.8473H113.411L118.652 5.63636H123.862L116.82 13.8608H115.744L112.74 17.2912ZM108.627 22V0.181818H113.166V22H108.627ZM118.855 22L114.039 14.8729L117.065 11.6662L124.171 22H118.855ZM132.872 22.3196C131.189 22.3196 129.74 21.9787 128.525 21.2969C127.318 20.608 126.388 19.6349 125.734 18.3778C125.081 17.1136 124.754 15.6186 124.754 13.8928C124.754 12.2095 125.081 10.7322 125.734 9.46094C126.388 8.18963 127.307 7.19886 128.493 6.48864C129.687 5.77841 131.086 5.4233 132.691 5.4233C133.77 5.4233 134.775 5.5973 135.706 5.94531C136.643 6.28622 137.46 6.80114 138.156 7.49006C138.859 8.17898 139.406 9.04545 139.797 10.0895C140.187 11.1264 140.383 12.3409 140.383 13.733V14.9794H126.565V12.1669H136.111C136.111 11.5135 135.969 10.9347 135.684 10.4304C135.4 9.92614 135.006 9.53196 134.502 9.24787C134.005 8.95668 133.426 8.81108 132.765 8.81108C132.077 8.81108 131.466 8.97088 130.933 9.29048C130.407 9.60298 129.996 10.0256 129.697 10.5582C129.399 11.0838 129.246 11.6697 129.239 12.3161V14.9901C129.239 15.7997 129.388 16.4993 129.687 17.0888C129.992 17.6783 130.422 18.1328 130.976 18.4524C131.53 18.772 132.187 18.9318 132.947 18.9318C133.451 18.9318 133.912 18.8608 134.331 18.7188C134.751 18.5767 135.109 18.3636 135.407 18.0795C135.706 17.7955 135.933 17.4474 136.089 17.0355L140.287 17.3125C140.074 18.321 139.637 19.2017 138.976 19.9545C138.323 20.7003 137.478 21.2827 136.441 21.7017C135.411 22.1136 134.221 22.3196 132.872 22.3196Z" fill="#292929"/>
</svg>
